<svg width="22" height="22" viewBox="0 0 22 22" fill="none" xmlns="http://www.w3.org/2000/svg">
<path d="M3.72799 15.137C2.18299 13.591 1.40999 12.819 1.12299 11.816C0.834988 10.813 1.08099 9.748 1.57299 7.619L1.85599 6.391C2.26899 4.599 2.47599 3.703 3.08899 3.089C3.70299 2.476 4.59899 2.269 6.39099 1.856L7.61899 1.572C9.74899 1.081 10.813 0.835001 11.816 1.122C12.819 1.41 13.591 2.183 15.136 3.728L16.966 5.558C19.657 8.248 21 9.592 21 11.262C21 12.933 19.656 14.277 16.967 16.966C14.277 19.656 12.933 21 11.262 21C9.59199 21 8.24699 19.656 5.55799 16.967L3.72799 15.137Z" stroke="white" stroke-width="1.5"/>
<path opacity="0.5" d="M9.02121 9.29324C9.80225 8.51219 9.80225 7.24586 9.02121 6.46481C8.24016 5.68377 6.97383 5.68377 6.19278 6.46481C5.41173 7.24586 5.41173 8.51219 6.19278 9.29324C6.97383 10.0743 8.24016 10.0743 9.02121 9.29324Z" stroke="white" stroke-width="1.5"/>
<path opacity="0.5" d="M10.542 17.5L17.521 10.52" stroke="white" stroke-width="1.5" stroke-linecap="round"/>
</svg>
